<svg xmlns="http://www.w3.org/2000/svg" width="682.667" height="682.667" preserveAspectRatio="xMidYMid meet" version="1.0" viewBox="0 0 512 512">
    <g fill="#000" stroke="none">
        <path d="M 3331.343 1452.215 C 3311.074 1514.628 2832.576 1517.088 2356.274 1500.473 C 1879.972 1483.858 1387.361 1477.156 1342.476 1510.226 C 1320.158 1526.669 1316.124 1800.981 1318.199 2092.436 C 1320.275 2383.89 1328.398 2672.184 1328.398 2673.093 C 1328.639 3292.562 1331.108 3615.013 1330.599 3862.302 C 1330.09 4109.592 1326.603 4281.719 1314.929 4600.539 C 1296.929 4604.539 1093.697 4608.904 893.715 4611.269 C 693.732 4613.635 497 4614 492 4610 C 490 4608.5 488 4388 486.625 4034 C 485.25 3680 484.5 3192.5 485 2657 L 485 1683 L 485 709 L 910 710 L 1335 711 C 1784 711.5 2240.747 712.847 2607.573 715.533 C 2974.398 718.219 3251.302 722.243 3340.616 728.096 L 3331.343 1452.215 Z" transform="matrix(0.10000000149011612, 0, 0, -0.10000000149011612, 0, 512)" style=""/>
        <path d="M4160 1789 c-275 -24 -499 -263 -503 -536 -1 -115 21 -212 66 -292 210 -369 697 -402 950 -65 77 103 110 199 111 329 0 50 -6 113 -13 140 -16 58 -62 155 -91 193 -33 43 -122 132 -132 132 -5 0 -26 11 -46 25 -85 56 -219 85 -342 74z" transform="translate(0.000000,512.000000) scale(0.100000,-0.100000)"/>
    </g>
</svg>
